#tb 0: 1/50
#media_type 0: video
#codec_id 0: rawvideo
#dimensions 0: 720x576
#sar 0: 16/15
0,         18,         18,        1,   622080, 0x21d21485
0,         19,         19,        1,   622080, 0x600a5468
0,         20,         20,        1,   622080, 0x9526f7b8
0,         21,         21,        1,   622080, 0x8b3e661f
0,         22,         22,        1,   622080, 0xff5cb5a9
0,         23,         23,        1,   622080, 0x7e5e730c
0,         24,         24,        1,   622080, 0x85219ac6
0,         25,         25,        1,   622080, 0x2f3465a0
0,         26,         26,        1,   622080, 0xddbf4da0
0,         27,         27,        1,   622080, 0xc115d4ee
0,         28,         28,        1,   622080, 0x7a8a8d72
0,         29,         29,        1,   622080, 0xbafcd973
0,         30,         30,        1,   622080, 0xd2c15603
0,         31,         31,        1,   622080, 0xd7217855
0,         32,         32,        1,   622080, 0x9a584eca
0,         33,         33,        1,   622080, 0x9f3e1c40
0,         34,         34,        1,   622080, 0x6d01efb7
0,         35,         35,        1,   622080, 0x9ecfcce0
0,         36,         36,        1,   622080, 0xb355fd7e
0,         37,         37,        1,   622080, 0xc7784021
0,         38,         38,        1,   622080, 0x13fe4187
0,         39,         39,        1,   622080, 0xfa03b613
0,         40,         40,        1,   622080, 0x2c9ccfcd
0,         41,         41,        1,   622080, 0xcae6e6c6
0,         42,         42,        1,   622080, 0x177968f9
0,         43,         43,        1,   622080, 0xf708de36
0,         44,         44,        1,   622080, 0x4491870a
0,         45,         45,        1,   622080, 0x37709f98
0,         46,         46,        1,   622080, 0x23e8d22f
0,         47,         47,        1,   622080, 0x25cba876
